<?xml version="1.0" encoding="UTF-8"?>
<svg width="510.34" height="259.78" viewBox="0 0 510.342 259.784" xmlns="http://www.w3.org/2000/svg">
 <defs>
  <linearGradient id="b" x2="0" y1="-178.48" y2="-182.93" gradientTransform="matrix(-1.6004 .7821 .7488 1.5323 1470.4 -1.5165)" gradientUnits="userSpaceOnUse">
   <stop stop-color="#fab044" offset="0"/>
   <stop stop-color="#c67729" offset="1"/>
  </linearGradient>
  <linearGradient id="f" x2="0" y1="-178.48" y2="-182.93" gradientTransform="matrix(-1.6004 .7821 .7488 1.5323 1501.4 -16.665)" gradientUnits="userSpaceOnUse">
   <stop stop-color="#fab044" offset="0"/>
   <stop stop-color="#c67729" offset="1"/>
  </linearGradient>
  <linearGradient id="d" x2="0" y1="-179.94" y2="-185.23" gradientTransform="matrix(-1.6004 .7821 .7488 1.5323 1486.2 -9.2001)" gradientUnits="userSpaceOnUse">
   <stop stop-color="#fab044" offset="0"/>
   <stop stop-color="#c67729" offset="1"/>
  </linearGradient>
  <linearGradient id="a" x2="0" y1="-81.261" y2="-85.708" gradientTransform="matrix(1.6004 .7821 -.7488 1.5323 -582.46 -1.5165)" gradientUnits="userSpaceOnUse">
   <stop stop-color="#fab044" offset="0"/>
   <stop stop-color="#c67729" offset="1"/>
  </linearGradient>
  <linearGradient id="e" x2="0" y1="-81.26" y2="-85.708" gradientTransform="matrix(1.6004 .7821 -.7488 1.5323 -613.46 -16.665)" gradientUnits="userSpaceOnUse">
   <stop stop-color="#fab044" offset="0"/>
   <stop stop-color="#c67729" offset="1"/>
  </linearGradient>
  <linearGradient id="c" x1="480.33" x2="480.33" y1="-82.72" y2="-88.004" gradientTransform="matrix(1.6004 .7821 -.7488 1.5323 -598.18 -9.2001)" gradientUnits="userSpaceOnUse">
   <stop stop-color="#fab044" offset="0"/>
   <stop stop-color="#c67729" offset="1"/>
  </linearGradient>
 </defs>
 <path d="m299.13 153.22c0 38.809-14.893 104.96-43.96 104.96s-43.961-66.149-43.961-104.96 14.893-70.269 43.961-70.269 43.96 31.461 43.96 70.269z" fill="#333" stroke="#000" stroke-linecap="round" stroke-linejoin="round" stroke-width="2.6017"/>
 <path d="m294.83 127.9c0.667 4.295 1.021 8.731 1.021 13.278 0 37.532-15.046 102.68-44.269 102.68-21.918 0-27.063-25.812-35.104-50.213 3.655 30.975 12.583 63.293 38.231 63.293 29.226 0 44.271-65.15 44.271-102.68 1e-3 -9.347-1.483-18.255-4.15-26.357z" fill-opacity=".3137"/>
 <path d="m263.95 250.2c-3.007-6.153-2.357-12.652 1.451-14.514s9.337 1.618 12.345 7.772c3.008 6.155 2.358 12.654-1.452 14.515s-9.336-1.618-12.344-7.773z" fill="url(#b)" stroke="#000" stroke-linecap="round" stroke-linejoin="round" stroke-width="2.6249"/>
 <path d="m280.65 242.04c-3.008-6.155-2.358-12.654 1.45-14.516s9.337 1.619 12.345 7.774c3.008 6.153 2.358 12.652-1.452 14.516s-9.335-1.62-12.343-7.774z" fill="url(#f)" stroke="#000" stroke-linecap="round" stroke-linejoin="round" stroke-width="2.6249"/>
 <path d="m271.393,243.961c-3.574-7.313-3.382-14.751.426-16.612s9.795,2.557 13.369,9.871 3.383,14.748-.427,16.61-9.795-2.556-13.368-9.869z" fill="url(#d)" stroke="#000" stroke-linecap="round" stroke-linejoin="round" stroke-width="2.6249"/>
 <path d="m246.4 250.2c3.007-6.153 2.358-12.652-1.451-14.514s-9.336 1.618-12.344 7.772c-3.008 6.155-2.358 12.654 1.452 14.515s9.335-1.618 12.343-7.773z" fill="url(#a)" stroke="#000" stroke-linecap="round" stroke-linejoin="round" stroke-width="2.6249"/>
 <path d="m229.7 242.04c3.008-6.155 2.358-12.654-1.451-14.516s-9.337 1.619-12.344 7.774c-3.008 6.153-2.358 12.652 1.452 14.516s9.335-1.62 12.343-7.774z" fill="url(#e)" stroke="#000" stroke-linecap="round" stroke-linejoin="round" stroke-width="2.6249"/>
 <path d="m238.949,243.961c3.574-7.313 3.382-14.751-.426-16.612s-9.795,2.557-13.369,9.871-3.383,14.748.427,16.61 9.795-2.556 13.368-9.869z" fill="url(#c)" stroke="#000" stroke-linecap="round" stroke-linejoin="round" stroke-width="2.6249"/>
 <path d="m289.82 190.8c28.386-17.472 63.344-13.648 63.344-13.648 37.863-28.684 74.577 0 74.577 0 34.994-41.305 80.313 0 80.313 0 13.194-82.035-144.56-108.42-144.56-108.42-30.336 54.989-84.996 36.711-84.996 36.711" fill="#333" stroke="#000" stroke-linecap="round" stroke-linejoin="round" stroke-width="3"/>
 <path d="m427.54 174.04s21.801-47.779-62.227-103.54" fill="#333" stroke="#000" stroke-linecap="round" stroke-linejoin="round" stroke-width="3"/>
 <path d="m352.78 174.75s26.035-50.087 12.204-104.18" fill="#333" stroke="#000" stroke-linecap="round" stroke-linejoin="round" stroke-width="3"/>
 <path d="m220.52 190.8c-28.386-17.472-63.344-13.648-63.344-13.648-37.863-28.684-74.577 0-74.577 0-34.994-41.305-80.313 0-80.313 0-13.195-82.035 144.56-108.42 144.56-108.42 30.336 54.989 84.996 36.711 84.996 36.711" fill="#333" stroke="#000" stroke-linecap="round" stroke-linejoin="round" stroke-width="3"/>
 <path d="m82.804 174.04s-21.801-47.779 62.227-103.54" fill="#333" stroke="#000" stroke-linecap="round" stroke-linejoin="round" stroke-width="3"/>
 <path d="m157.56 174.75s-26.035-50.087-12.204-104.18" fill="#333" stroke="#000" stroke-linecap="round" stroke-linejoin="round" stroke-width="3"/>
 <path d="m284.24 91.596s-13.686 12.146-30.075 12.146c-12.545 0-19.463-4.979-27.133-11.133 0 0 9.886 14.795 28.92 14.795 21.643 0 28.288-15.808 28.288-15.808z" fill-opacity=".3137"/>
 <path d="m304.46 1.5c-13.926 2.347-26.397 17.749-29.763 22.223-5.818-3.05-12.436-4.785-19.46-4.785-7.065 0-13.719 1.753-19.562 4.836-3.304-4.405-15.818-19.918-29.8-22.274 0 0-11.356 52.004 7.425 61.295 0.98 22.316 19.378 40.11 41.938 40.11 22.581 0 40.991-17.831 41.937-40.181 18.585-9.478 7.285-61.224 7.285-61.224z" fill="#333" stroke="#000" stroke-linecap="round" stroke-linejoin="round" stroke-width="3"/>
 <path d="m295.98 62.765s-7.354 33.15-42.939 33.15c-17.073 0-31.731-9.15-37.994-22.189 3.78 16.627 20.451 29.178 40.432 29.178 22.765 0 41.239-16.277 41.239-36.333-1e-3 -4.995-0.738-3.806-0.738-3.806z" fill-opacity=".3137"/>
 <path d="m287.95,41.426c-3.834-7.167-9.652-11.778-9.652-11.778s9.175-13.247 19.621-15.007c0,0 6.62,34.886-6.638,39.61 0-.001.053-6.499-3.331-12.825z" fill="#f1aac2"/>
 <path d="m291.27,54.612c-.199-.559.091-1.172.65-1.371 2.658-.946 4.424-3.319 5.563-6.706 1.126-3.364 1.544-7.631 1.54-11.914 0-4.925-.538-9.877-1.078-13.588-.331-2.277-.659-4.079-.864-5.132-6.915,1.67-13.506,8.744-16.354,12.322-1.002,1.244-1.548,2.033-1.548,2.035-.338.486-1.006.608-1.491.271s-.61-1.006-.272-1.493c.099-.047 9.171-13.475 20.325-15.454 .564-.095 1.104.269 1.226.828 .006.041 2.198,10.057 2.202,20.211-.004,4.422-.412,8.871-1.652,12.593-1.228,3.704-3.368,6.792-6.875,8.045-.119.042-.241.063-.361.063-.443,0-.855-.273-1.011-.71z"/>
 <path d="m222.607,41.426c3.834-7.167 9.652-11.778 9.652-11.778s-9.175-13.247-19.621-15.007c0,0-6.62,34.886 6.638,39.61 0-.001-.054-6.499 3.331-12.825z" fill="#f1aac2"/>
 <path d="m219.287,54.612c.199-.559-.091-1.172-.65-1.371-2.658-.946-4.424-3.319-5.563-6.706-1.126-3.364-1.544-7.631-1.54-11.914 0-4.925.538-9.877 1.078-13.588 .331-2.277.659-4.079.864-5.132 6.915,1.67 13.506,8.744 16.354,12.322 1.002,1.244 1.548,2.033 1.548,2.035 .338.486 1.006.608 1.491.271 .488-.337.61-1.006.272-1.493-.099-.047-9.171-13.475-20.325-15.454-.564-.095-1.104.269-1.226.828-.006.041-2.198,10.057-2.202,20.211 .004,4.422.412,8.871 1.652,12.593 1.228,3.704 3.368,6.792 6.875,8.045 .119.042.241.063.361.063 .442,0 .854-.273 1.011-.71z"/>
 <path d="m242.72 35.045c-8.92 0-16.164 8.375-16.164 18.696s7.244 18.695 16.164 18.695c5.242 0 9.893-2.895 12.846-7.375 2.952 4.483 7.614 7.375 12.859 7.375 8.917 0 16.162-8.376 16.162-18.695s-7.245-18.696-16.162-18.696c-5.244 0-9.907 2.894-12.859 7.376-2.953-4.479-7.605-7.376-12.846-7.376z" fill="#fff" stroke="#000" stroke-linecap="round" stroke-width="2.8319"/>
 <path d="m254.54 55.006c0 2.584-2.096 4.679-4.68 4.679s-4.679-2.095-4.679-4.679c0-2.585 2.096-4.68 4.679-4.68 2.585 1e-3 4.68 2.095 4.68 4.68z" stroke="#000" stroke-linecap="round" stroke-width="1.795"/>
 <path d="m249.389,53.367c0,.67-.544,1.213-1.214,1.213s-1.213-.543-1.213-1.213 .543-1.214 1.213-1.214 1.214.544 1.214,1.214z" fill="#fff"/>
 <path d="m266.39 55.006c0 2.584-2.095 4.679-4.679 4.679-2.585 0-4.68-2.095-4.68-4.679 0-2.585 2.095-4.68 4.68-4.68s4.679 2.095 4.679 4.68z" stroke="#000" stroke-linecap="round" stroke-width="1.795"/>
 <path d="m261.239,53.367c0,.67-.543,1.213-1.213,1.213s-1.213-.543-1.213-1.213 .543-1.214 1.213-1.214 1.213.544 1.213,1.214z" fill="#fff"/>
 <path d="m364.59 68.291c49.458 29.218 135.96 50.052 144.1 108.27 0 0 3.719-12.541-2.394-28.548-22.721-59.5-141.71-79.718-141.71-79.718z" fill-opacity=".3137"/>
</svg>
